<?xml version="1.0" standalone="no"?>
<!DOCTYPE svg PUBLIC "-//W3C//DTD SVG 20010904//EN"
 "http://www.w3.org/TR/2001/REC-SVG-20010904/DTD/svg10.dtd">
<svg version="1.0" xmlns="http://www.w3.org/2000/svg"
 width="700.000000pt" height="700.000000pt" viewBox="0 0 700.000000 700.000000"
 preserveAspectRatio="xMidYMid meet">
<metadata>
Created by potrace 1.14, written by Peter Selinger 2001-2017
</metadata>
<g transform="translate(0.000000,700.000000) scale(0.100000,-0.100000)"
fill="#000000" stroke="none">
<path d="M2460 6658 l-1015 -330 -633 -871 -632 -871 0 -1086 0 -1086 633
-871 632 -871 1020 -331 c561 -182 1027 -331 1035 -331 8 -1 474 148 1035 331
l1020 331 633 870 632 871 0 1087 0 1087 -632 871 -633 870 -1020 331 c-561
183 -1029 331 -1040 331 -11 -1 -477 -150 -1035 -332z m2863 -1769 c47 -13
102 -60 128 -110 17 -35 19 -61 19 -319 0 -231 -3 -287 -15 -318 -20 -47 -50
-79 -97 -103 -36 -18 -69 -19 -728 -19 l-690 0 0 -1247 c0 -1192 -1 -1250 -19
-1289 -23 -51 -81 -99 -137 -113 -57 -15 -511 -15 -568 0 -56 14 -114 62 -137
113 -18 39 -19 97 -19 1289 l0 1247 -690 0 c-659 0 -692 1 -728 19 -47 24 -77
56 -97 103 -12 31 -15 87 -15 318 0 310 2 320 68 383 62 59 -50 56 1897 57
1220 0 1802 -3 1828 -11z"/>
</g>
</svg>
